<svg xmlns="http://www.w3.org/2000/svg" xmlns:xlink="http://www.w3.org/1999/xlink" version="1.1" x="0px" y="0px" fill='#ccc' viewBox="0 0 100 125"
     style="enable-background:new 0 0 100 100;" xml:space="preserve"><g><g>
    <path d="M89.2,14.9H9.1c-0.8,0-1.5,0.7-1.5,1.5v69.8c0,0.8,0.7,1.5,1.5,1.5h80.1c0.8,0,1.5-0.7,1.5-1.5V16.4    C90.7,15.6,90,14.9,89.2,14.9z M88.7,16.9v10.3H9.8c0,0-0.1,0-0.1,0V16.9H88.7z M9.7,85.6V29.2c0,0,0.1,0,0.1,0h78.9v56.3H9.7z"/><circle cx="17.1" cy="22.3" r="1.7"/><circle cx="23.8" cy="22.3" r="1.7"/><circle cx="30.5" cy="22.3" r="1.7"/><path d="M39.2,47.1c-0.4-0.4-1-0.4-1.4,0l-9.7,9.7c-0.2,0.2-0.3,0.4-0.3,0.7s0.1,0.5,0.3,0.7l9.7,9.7c0.2,0.2,0.5,0.3,0.7,0.3    s0.5-0.1,0.7-0.3c0.4-0.4,0.4-1,0-1.4l-9-9l9-9C39.6,48.1,39.6,47.5,39.2,47.1z"/><path d="M60.6,47.1c-0.4-0.4-1-0.4-1.4,0s-0.4,1,0,1.4l9,9l-9,9c-0.4,0.4-0.4,1,0,1.4c0.2,0.2,0.5,0.3,0.7,0.3s0.5-0.1,0.7-0.3    l9.7-9.7c0.2-0.2,0.3-0.4,0.3-0.7c0-0.3-0.1-0.5-0.3-0.7L60.6,47.1z"/><path d="M52.4,46.8c-0.5-0.2-1.1,0-1.3,0.6l-7.7,19.3c-0.2,0.5,0,1.1,0.6,1.3c0.1,0,0.2,0.1,0.4,0.1c0.4,0,0.8-0.2,0.9-0.6    l7.7-19.3C53.1,47.6,52.9,47.1,52.4,46.8z"/></g></g></svg>