<svg xmlns="http://www.w3.org/2000/svg" xmlns:xlink="http://www.w3.org/1999/xlink" version="1.1" x="0px" y="0px" viewBox="0 0 100 125" style="enable-background:new 0 0 100 100;"
     xml:space="preserve"><path d="M55.7792969,40.0961914c-2.0107422-0.7983398-4.0839844-0.2680664-5.5771484,1.3408203  c-1.4951172-1.6083984-3.5673828-2.137207-5.578125-1.3408203c-2.2041016,0.8759766-4.2070312,3.4785156-3.3964844,7.1240234  c1.2958984,5.8149414,8.2919922,8.8007812,8.5888672,8.925293c0.1230469,0.0512695,0.2548828,0.0771484,0.3857422,0.0771484  s0.2626953-0.0258789,0.3857422-0.0776367c0.296875-0.1240234,7.2929688-3.1098633,8.5878906-8.9248047  C59.9863281,43.574707,57.9833984,40.9716797,55.7792969,40.0961914z M57.2226562,46.7856445  c-0.9130859,4.1005859-5.6308594,6.6621094-7.0214844,7.3364258c-1.3916016-0.6713867-6.1044922-3.2216797-7.0205078-7.3364258  c-0.5576172-2.5019531,0.7402344-4.2578125,2.1816406-4.8305664c0.3808594-0.1513672,0.7597656-0.2250977,1.1298828-0.2250977  c1.1005859,0,2.1191406,0.6567383,2.8505859,1.8852539c0.3613281,0.6054688,1.3574219,0.6054688,1.71875,0  c0.9765625-1.6411133,2.4628906-2.2641602,3.9794922-1.6601562C56.4824219,42.5273438,57.7802734,44.2832031,57.2226562,46.7856445z  "/><path d="M60.34375,29.5136719c-0.8222656-0.3271484-1.6865234-0.206543-2.3828125,0.2797852  c-0.6953125-0.4873047-1.5576172-0.6064453-2.3828125-0.2797852c-1.1201172,0.4448242-2.0595703,1.7753906-1.6855469,3.4570312  c0.5693359,2.5546875,3.5556641,3.8305664,3.6826172,3.8833008c0.1230469,0.0517578,0.2548828,0.0776367,0.3857422,0.0776367  s0.2626953-0.0258789,0.3857422-0.0776367c0.1269531-0.0527344,3.1132812-1.3286133,3.6826172-3.8833008  C62.4033203,31.2890625,61.4648438,29.9589844,60.34375,29.5136719z M60.0761719,32.5361328  c-0.2353516,1.0581055-1.3867188,1.8857422-2.1152344,2.2832031c-0.7294922-0.3984375-1.8798828-1.2255859-2.1152344-2.2832031  c-0.1376953-0.6166992,0.1474609-1.0356445,0.4707031-1.1640625c0.0722656-0.0283203,0.1396484-0.0410156,0.2041016-0.0410156  c0.2646484,0,0.4580078,0.2192383,0.5810547,0.4267578c0.1806641,0.3027344,0.5068359,0.4882812,0.859375,0.4882812  s0.6787109-0.1855469,0.859375-0.487793c0.1523438-0.2578125,0.4111328-0.5327148,0.7851562-0.3862305  C59.9287109,31.5004883,60.2138672,31.9194336,60.0761719,32.5361328z"/><path d="M42.8935547,57.6748047c-0.2460938-0.1025391-0.5253906-0.1025391-0.7714844,0  c-0.1289062,0.0541992-3.1679688,1.3515625-3.7470703,3.9492188c-0.3789062,1.7050781,0.5722656,3.0537109,1.7080078,3.5048828  c0.8369141,0.3320312,1.7158203,0.2094727,2.4248047-0.2919922c0.4404297,0.3125,0.9482422,0.4785156,1.4707031,0.4785156  c0.3164062,0,0.6376953-0.0610352,0.9541016-0.1865234c1.1357422-0.4511719,2.0869141-1.800293,1.7070312-3.5043945  C46.0615234,59.0263672,43.0224609,57.7290039,42.8935547,57.6748047z M44.1943359,63.2705078  c-0.3974609,0.1552734-0.6669922-0.1333008-0.8271484-0.4023438c-0.1806641-0.3027344-0.5068359-0.4882812-0.859375-0.4882812  s-0.6787109,0.1855469-0.859375,0.487793c-0.1611328,0.2705078-0.4423828,0.5546875-0.8271484,0.402832  c-0.3378906-0.1342773-0.6367188-0.5708008-0.4931641-1.2119141c0.2431641-1.0922852,1.4335938-1.9443359,2.1796875-2.3491211  c0.7470703,0.4057617,1.9365234,1.2573242,2.1796875,2.3496094C44.8300781,62.699707,44.53125,63.1362305,44.1943359,63.2705078z"/><path d="M62.4130859,25.5644531H37.5869141c-1.9052734,0-3.4560547,1.5507812-3.4560547,3.4570312v36.6020508  c0,1.9057617,1.5507812,3.456543,3.4560547,3.456543h24.8261719c1.9052734,0,3.4560547-1.5507812,3.4560547-3.456543V29.0214844  C65.8691406,27.1152344,64.3183594,25.5644531,62.4130859,25.5644531z M63.8691406,65.6235352  c0,0.8032227-0.6533203,1.456543-1.4560547,1.456543H37.5869141c-0.8027344,0-1.4560547-0.6533203-1.4560547-1.456543V29.0214844  c0-0.8032227,0.6533203-1.4570312,1.4560547-1.4570312h24.8261719c0.8027344,0,1.4560547,0.6538086,1.4560547,1.4570312V65.6235352z  "/><path d="M78.9580078,84.7675781V15.4819336c0-2.9541016-2.4033203-5.3574219-5.3574219-5.3574219H26.3994141  c-2.9541016,0-5.3574219,2.4033203-5.3574219,5.3574219v69.2856445c0,2.9536133,2.4033203,5.3569336,5.3574219,5.3569336h47.2011719  C76.5546875,90.1245117,78.9580078,87.7211914,78.9580078,84.7675781z M23.0419922,21.2099609h53.9160156v52.5205078H23.0419922  V21.2099609z M26.3994141,12.1245117h47.2011719c1.8515625,0,3.3574219,1.5063477,3.3574219,3.3574219v3.7280273H23.0419922  v-3.7280273C23.0419922,13.6308594,24.5478516,12.1245117,26.3994141,12.1245117z M73.6005859,88.1245117H26.3994141  c-1.8515625,0-3.3574219-1.5058594-3.3574219-3.3569336v-9.0371094h53.9160156v9.0371094  C76.9580078,86.6186523,75.4521484,88.1245117,73.6005859,88.1245117z"/><path d="M50,77.9833984c-2.2695312,0-4.1162109,1.8461914-4.1162109,4.1162109c0,0,0,0,0,0.0004883  c0,1.0996094,0.4277344,2.1333008,1.2050781,2.9111328C47.8662109,85.7885742,48.9003906,86.2167969,50,86.2167969  c2.2685547,0,4.1162109-1.8466797,4.1171875-4.1166992C54.1171875,79.8300781,52.2705078,77.9833984,50,77.9833984z M50,84.2167969  c-0.5654297,0-1.0976562-0.2202148-1.4970703-0.6196289c-0.3994141-0.3999023-0.6191406-0.9311523-0.6191406-1.496582v-0.0004883  c0-1.1669922,0.9492188-2.1166992,2.1162109-2.1166992s2.1171875,0.949707,2.1171875,2.1162109  C52.1162109,83.2670898,51.1669922,84.2167969,50,84.2167969z"/></svg>